#!OML:ASF H:\IndianDance\Patient Classification 1\Patient 1\Session 1\dancer.ASF
:FULLY-SPECIFIED
:DEGREES
2364
root -9.03828 13.9749 13.2769 -167.65 29.1491 -186.559
lowerback -1.51667 5.41027 1.09675
upperback -8.53742 7.75204 -5.46484
thorax -7.20884 3.89429 -6.73778
lowerneck -18.8921 -1.83051 0.139244
upperneck 22.3141 -1.61794 -2.2668
head 10.2314 -0.846207 -1.02713
rclavicle -4.50744e-014 4.4329e-014
rhumerus -4.3372 47.2332 -52.5229
rradius 125.391
rwrist -97.1048
rhand -14.604 -5.80634
rfingers 7.12502
rthumb 11.5466 -35.4683
lclavicle -4.50744e-014 4.4329e-014
lhumerus 6.37286 -54.5633 11.5873
lradius 125.527
lwrist 72.0254
lhand -13.9332 30.2564
lfingers 7.12502
lthumb 12.1935 59.881
rfemur -10.0883 -16.3786 36.1678
rtibia 47.5383
rfoot 22.1292 12.4867
rtoes 17.3892
lfemur 137.302 165.718 146.823
ltibia 60.7439
lfoot -30.8659 11.515
ltoes -10.9576
2365
root -9.03188 13.9765 13.2939 -167.988 29.0414 -186.587
lowerback -1.00677 5.32881 0.959109
upperback -8.33549 7.59885 -5.29008
thorax -7.33939 3.80929 -6.51783
lowerneck -19.0722 -1.54718 0.273251
upperneck 22.1632 -1.25794 -2.34685
head 10.2146 -0.685851 -1.02823
rclavicle -3.17931e-014 -1.59028e-015
rhumerus -3.71954 48.4601 -53.8391
rradius 126.178
rwrist -97.5952
rhand -15.6054 -5.99382
rfingers 7.12502
rthumb 10.5808 -35.7075
lclavicle -3.17931e-014 -1.59028e-015
lhumerus 8.86746 -54.558 10.8901
lradius 126.803
lwrist 73.2069
lhand -13.8759 30.7029
lfingers 7.12502
lthumb 12.2487 60.3242
rfemur -11.901 -16.8684 35.1922
rtibia 51.8489
rfoot 18.5326 13.9664
rtoes 12.9033
lfemur 137.597 165.338 146.864
ltibia 60.6667
lfoot -30.8329 10.9035
ltoes -9.63057
2366
root -9.02448 13.9783 13.3105 -168.394 28.927 -186.712
lowerback -0.465685 5.2161 0.721574
upperback -8.12964 7.39988 -5.11775
thorax -7.49964 3.7077 -6.24634
lowerneck -19.1896 -1.26818 0.450131
upperneck 21.9589 -0.909939 -2.46793
head 10.1669 -0.532461 -1.05133
rclavicle 3.95333e-014 4.87022e-014
rhumerus -2.99204 49.4746 -54.8597
rradius 126.876
rwrist -98.2084
rhand -16.7423 -6.19903
rfingers 7.12502
rthumb 9.48403 -35.9656
lclavicle 3.95333e-014 4.87022e-014
lhumerus 11.0298 -54.2941 10.327
lradius 127.91
lwrist 74.4874
lhand -13.89 31.1997
lfingers 7.12502
lthumb 12.2352 60.8219
rfemur -13.7607 -17.3368 34.0848
rtibia 56.3172
rfoot 14.3389 14.5476
rtoes 7.68294
lfemur 137.95 164.976 146.829
ltibia 60.5479
lfoot -30.8043 10.2837
ltoes -8.3134
2367
root -9.01519 13.9821 13.3261 -168.877 28.8052 -186.958
lowerback 0.0954762 5.07602 0.364805
upperback -7.92113 7.15854 -4.96083
thorax -7.6834 3.59309 -5.92382
lowerneck -19.2439 -1.00711 0.64768
upperneck 21.7114 -0.59241 -2.60323
head 10.0924 -0.392783 -1.08621
rclavicle 1.52878e-014 -2.48481e-014
rhumerus -2.18616 50.2638 -55.5932
rradius 127.517
rwrist -98.9159
rhand -17.9651 -6.35592
rfingers 7.12502
rthumb 8.30405 -36.1727
lclavicle 1.52878e-014 -2.48481e-014
lhumerus 12.8625 -53.7953 9.88886
lradius 128.86
lwrist 75.8869
lhand -14.0517 31.7087
lfingers 7.12502
lthumb 12.0792 61.34
rfemur -15.6476 -17.7953 32.8081
rtibia 60.8598
rfoot 10.0018 14.1233
rtoes 2.21377
lfemur 138.383 164.629 146.698
ltibia 60.3566
lfoot -30.7596 9.66287
ltoes -7.01766
2368
root -9.00335 13.9888 13.3399 -169.442 28.669 -187.344
lowerback 0.663477 4.91087 -0.126922
upperback -7.7131 6.87588 -4.83248
thorax -7.88479 3.46777 -5.55292
lowerneck -19.2376 -0.779198 0.847908
upperneck 21.4367 -0.326653 -2.72598
head 9.99714 -0.274577 -1.12373
rclavicle -5.92875e-014 -3.88624e-014
rhumerus -1.36408 50.798 -56.106
rradius 128.107
rwrist -99.6673
rhand -19.1861 -6.47212
rfingers 7.12502
rthumb 7.12553 -36.3322
lclavicle -5.92875e-014 -3.88624e-014
lhumerus 14.3994 -53.0904 9.53705
lradius 129.655
lwrist 77.3514
lhand -14.2852 32.1394
lfingers 7.12502
lthumb 11.8541 61.7838
rfemur -17.5453 -18.2706 31.3289
rtibia 65.4005
rfoot 6.00916 12.7498
rtoes -2.50213
lfemur 138.907 164.297 146.452
ltibia 60.073
lfoot -30.6797 9.0512
ltoes -5.79732
2369
root -8.98894 13.9984 13.3519 -170.07 28.5138 -187.848
lowerback 1.22615 4.72457 -0.740403
upperback -7.50586 6.5559 -4.7322
thorax -8.09317 3.33356 -5.13767
lowerneck -19.19 -0.59709 1.02637
upperneck 21.1476 -0.129112 -2.80896
head 9.88895 -0.184452 -1.15292
rclavicle 7.66097e-015 -3.37934e-014
rhumerus -0.558627 51.0963 -56.4266
rradius 128.664
rwrist -100.391
rhand -20.352 -6.50896
rfingers 7.12502
rthumb 5.99994 -36.404
lclavicle 7.66097e-015 -3.37934e-014
lhumerus 15.68 -52.2045 9.22436
lradius 130.307
lwrist 78.7973
lhand -14.6164 32.4407
lfingers 7.12502
lthumb 11.5347 62.1034
rfemur -19.4386 -18.7698 29.6628
rtibia 69.8665
rfoot 2.70326 10.6816
rtoes -5.65389
lfemur 139.511 163.981 146.111
ltibia 59.7026
lfoot -30.5581 8.45112
ltoes -4.6689
